<?xml version="1.0" encoding="UTF-8"?>
<svg width="518px" height="417px" viewBox="0 0 518 417" version="1.1" xmlns="http://www.w3.org/2000/svg" xmlns:xlink="http://www.w3.org/1999/xlink">
    <title>336B7CC6-C4D2-4674-92C2-7BBF58C650E1</title>
    <defs>
        <linearGradient x1="18.9922298%" y1="8.13632131%" x2="95.6488099%" y2="118.244798%" id="linearGradient-1">
            <stop stop-color="#48C2F9" stop-opacity="0" offset="0%"></stop>
            <stop stop-color="#D627A6" offset="100%"></stop>
        </linearGradient>
        <linearGradient x1="50%" y1="76.7000911%" x2="100%" y2="-12.8334433%" id="linearGradient-2">
            <stop stop-color="#393939" offset="0%"></stop>
            <stop stop-color="#68ADD4" offset="100%"></stop>
        </linearGradient>
        <filter x="-33.4%" y="-40.6%" width="166.8%" height="181.2%" filterUnits="objectBoundingBox" id="filter-3">
            <feOffset dx="0" dy="1" in="SourceAlpha" result="shadowOffsetOuter1"></feOffset>
            <feGaussianBlur stdDeviation="19" in="shadowOffsetOuter1" result="shadowBlurOuter1"></feGaussianBlur>
            <feColorMatrix values="0 0 0 0 1   0 0 0 0 0.509794207   0 0 0 0 0.917299198  0 0 0 1 0" type="matrix" in="shadowBlurOuter1" result="shadowMatrixOuter1"></feColorMatrix>
            <feMerge>
                <feMergeNode in="shadowMatrixOuter1"></feMergeNode>
                <feMergeNode in="SourceGraphic"></feMergeNode>
            </feMerge>
        </filter>
        <path d="M173.537738,126.560198 L180.403411,136.869904 C123.562557,165.045087 83.0087248,166.192606 58.7419139,140.312463 C22.3416976,101.492249 81.6478183,45.8484181 42.5670327,16.9688241 C39.8232867,14.0723581 27.4383837,9.02451102 13.547267,9.38528348 C0.238698065,9.73092632 -6.84171433,2.0278371 9.37132181,0.312717001 C15.9275399,-0.38084226 22.7760667,0.0792560525 29.9169022,1.69301194 C67.1162826,10.0996919 74.0139203,31.9638935 67.3133414,66.5503107 C66.0751024,72.9417361 55.9272285,110.517624 64.2955058,126.560198 C70.9685747,139.352938 87.8276845,145.993204 104.984114,145.993204 C130.764935,145.993204 153.616143,139.515535 173.537738,126.560198 Z" id="path-4"></path>
        <linearGradient x1="18.9922298%" y1="27.0665467%" x2="95.6488099%" y2="87.3853645%" id="linearGradient-6">
            <stop stop-color="#48C2F9" offset="0%"></stop>
            <stop stop-color="#D627A6" offset="100%"></stop>
        </linearGradient>
        <path d="M40.3343432,99.936743 C6.26846358,63.142231 -6.21870552,29.8299833 2.87283588,0 C2.87283588,0 62.679598,48.0996202 162.45111,25.2278576 C162.45111,25.2278576 151.062207,64.9043112 117.19845,101.931138 C117.19845,101.931138 104.972629,105.546194 81.2255548,105.546194 C70.152753,105.546194 56.5223491,103.676377 40.3343432,99.936743 Z" id="path-7"></path>
        <linearGradient x1="50%" y1="44.5489826%" x2="4.10866414%" y2="58.6765063%" id="linearGradient-9">
            <stop stop-color="#AC79DB" offset="0%"></stop>
            <stop stop-color="#57B7F5" offset="100%"></stop>
        </linearGradient>
        <linearGradient x1="0%" y1="44.9351844%" x2="130.484623%" y2="57.4128437%" id="linearGradient-10">
            <stop stop-color="#48C1F9" offset="0%"></stop>
            <stop stop-color="#F544C5" offset="100%"></stop>
        </linearGradient>
        <path d="M17.3703729,1.66238622 C24.4933447,3.85836519 28.0698583,4.96060544 28.0999139,4.96910697 C42.1218319,8.93535072 50.2873908,8.93535072 63.3116454,10.142956 C80.5064993,11.7372581 95.5677985,11.968423 108.495543,10.8364507 C111.730601,10.553179 114.582768,12.9460796 114.866034,16.1811387 C114.880969,16.3516973 114.888447,16.5228269 114.888447,16.6940381 L114.888447,33.0089071 C114.888452,35.4435792 113.388002,37.6264377 111.114924,38.4986446 C93.6092,45.2157982 74.6412495,47.7289538 54.2110728,46.0381116 C34.9440471,44.443534 18.6447196,41.1043619 5.31309032,36.0205951 C2.33021523,34.8831394 0.799845127,31.5734007 1.86530059,28.5640563 L10.0952009,5.31896922 C11.1475664,2.34660408 14.3571585,0.733426272 17.3703729,1.66238622 Z" id="path-11"></path>
        <linearGradient x1="52.6443809%" y1="48.8002288%" x2="50%" y2="57.8841171%" id="linearGradient-13">
            <stop stop-color="#89DFFC" offset="0%"></stop>
            <stop stop-color="#51BBF7" offset="100%"></stop>
        </linearGradient>
        <circle id="path-14" cx="8" cy="8" r="4.30769231"></circle>
        <filter x="-52.2%" y="-52.2%" width="204.5%" height="204.5%" filterUnits="objectBoundingBox" id="filter-15">
            <feOffset dx="0" dy="0" in="SourceAlpha" result="shadowOffsetOuter1"></feOffset>
            <feGaussianBlur stdDeviation="1.5" in="shadowOffsetOuter1" result="shadowBlurOuter1"></feGaussianBlur>
            <feColorMatrix values="0 0 0 0 0   0 0 0 0 0   0 0 0 0 0  0 0 0 0.206730769 0" type="matrix" in="shadowBlurOuter1"></feColorMatrix>
        </filter>
        <circle id="path-16" cx="8" cy="8" r="4.30769231"></circle>
        <filter x="-52.2%" y="-52.2%" width="204.5%" height="204.5%" filterUnits="objectBoundingBox" id="filter-17">
            <feOffset dx="0" dy="0" in="SourceAlpha" result="shadowOffsetOuter1"></feOffset>
            <feGaussianBlur stdDeviation="1.5" in="shadowOffsetOuter1" result="shadowBlurOuter1"></feGaussianBlur>
            <feColorMatrix values="0 0 0 0 0   0 0 0 0 0   0 0 0 0 0  0 0 0 0.206730769 0" type="matrix" in="shadowBlurOuter1"></feColorMatrix>
        </filter>
        <circle id="path-18" cx="8" cy="8" r="4.30769231"></circle>
        <filter x="-52.2%" y="-52.2%" width="204.5%" height="204.5%" filterUnits="objectBoundingBox" id="filter-19">
            <feOffset dx="0" dy="0" in="SourceAlpha" result="shadowOffsetOuter1"></feOffset>
            <feGaussianBlur stdDeviation="1.5" in="shadowOffsetOuter1" result="shadowBlurOuter1"></feGaussianBlur>
            <feColorMatrix values="0 0 0 0 0   0 0 0 0 0   0 0 0 0 0  0 0 0 0.206730769 0" type="matrix" in="shadowBlurOuter1"></feColorMatrix>
        </filter>
    </defs>
    <g id="Page-1" stroke="none" stroke-width="1" fill="none" fill-rule="evenodd">
        <g id="y3_portal" transform="translate(-922.000000, -1771.000000)">
            <g id="Group-5" transform="translate(952.000000, 1771.000000)">
                <path d="M209,0 C93.5724873,0 0,93.3486297 0,208.5 C0,323.65137 93.5724873,417 209,417 C324.427513,417 418,323.65137 418,208.5 C418,93.3486297 324.427513,0 209,0 Z M209,51.3423423 C296.003921,51.3423423 366.534535,121.704222 366.534535,208.5 C366.534535,295.295778 296.003921,365.657658 209,365.657658 C121.996079,365.657658 51.4654655,295.295778 51.4654655,208.5 C51.4654655,121.704222 121.996079,51.3423423 209,51.3423423 Z" id="Oval-Copy-5" fill="url(#linearGradient-1)" fill-rule="nonzero" opacity="0.0650111607"></path>
                <polyline id="Path-15" stroke="#FFFFFF" stroke-width="0.5" points="271 198 386 198 386 265"></polyline>
                <polyline id="Path-15-Copy-2" stroke="#FFFFFF" stroke-width="0.5" points="148 67 213 67 213 134"></polyline>
                <polyline id="Path-15-Copy" stroke="#FFFFFF" stroke-width="0.5" points="249 215 364 215 364 317.667657 337.092954 318"></polyline>
                <g id="shape3" transform="translate(310.000000, 98.500000) scale(-1, 1) translate(-310.000000, -98.500000) translate(249.000000, 38.000000)" fill-rule="nonzero">
                    <path d="M122,37.0800471 C122,33.8521314 119.351419,31.2253028 116.096774,31.2253028 C115.419871,31.2253028 114.778387,31.3619135 114.172323,31.5707327 L105.354871,20.6399252 C105.917645,19.7441493 106.258065,18.6961501 106.258065,17.5642328 C106.258065,14.3363172 103.609484,11.7094886 100.354839,11.7094886 C98.6999677,11.7094886 97.2084194,12.3925421 96.136,13.4815245 L80.6242903,6.38167126 C80.6400323,6.20602894 80.6774194,6.03624135 80.6774194,5.85474428 C80.6774194,2.6268286 78.0288387,0 74.7741935,0 C72.2121935,0 70.0476774,1.63737682 69.2330323,3.90316285 L46.8637419,3.90316285 C46.0490968,1.63737682 43.8845806,0 41.3225806,0 C38.0679355,0 35.4193548,2.6268286 35.4193548,5.85474428 C35.4193548,6.09674038 35.4626452,6.32897856 35.4921613,6.56511992 L25.7321613,11.4050419 C24.6695806,10.3902195 23.233129,9.75790713 21.6451613,9.75790713 C18.3905161,9.75790713 15.7419355,12.3847357 15.7419355,15.6126514 C15.7419355,16.7445686 16.0823548,17.7925679 16.645129,18.6883437 L7.82767742,29.6191513 C7.2216129,29.4103321 6.58012903,29.2737214 5.90322581,29.2737214 C2.64858065,29.2737214 0,31.90055 0,35.1284657 C0,37.6694247 1.65093548,39.8161643 3.93548387,40.624119 L3.93548387,53.0537411 C1.65093548,53.8597442 0,56.0064838 0,58.5474428 C0,61.7753585 2.64858065,64.4021871 5.90322581,64.4021871 C8.0893871,64.4021871 9.97841935,63.2039161 10.9996774,61.4494444 L21.7415806,63.3854131 C22.196129,66.1683683 24.6164516,68.3053499 27.5483871,68.3053499 C27.6270968,68.3053499 27.701871,68.2858341 27.7805806,68.2819309 L31.5350323,77.5929259 C30.3071613,78.6662957 29.516129,80.2197545 29.516129,81.9664199 C29.516129,85.1943356 32.1647097,87.8211642 35.4193548,87.8211642 C37.3989032,87.8211642 39.1442903,86.8414703 40.2147419,85.3563168 L57.1019032,90.1415945 C57.2534194,92.5186207 58.8276129,94.4994758 61,95.2683989 L61,109.649602 C58.7154516,110.457557 57.0645161,112.604297 57.0645161,115.145256 C57.0645161,118.373171 59.7130968,121 62.9677419,121 C66.2223871,121 68.8709677,118.373171 68.8709677,115.145256 C68.8709677,112.604297 67.2200323,110.457557 64.9354839,109.649602 L64.9354839,95.2683989 C67.2200323,94.4604442 68.8709677,92.3137046 68.8709677,89.7727456 C68.8709677,87.9031306 67.9658065,86.2540443 66.5864194,85.1806745 L68.9359032,78.1881583 L86.5924516,84.0253383 C86.6396774,86.5175078 88.2650323,88.6154578 90.516129,89.411703 L90.516129,109.647651 C88.2315806,110.455606 86.5806452,112.602345 86.5806452,115.143304 C86.5806452,118.37122 89.2292258,120.998048 92.483871,120.998048 C95.7385161,120.998048 98.3870968,118.37122 98.3870968,115.143304 C98.3870968,112.602345 96.7361613,110.455606 94.4516129,109.647651 L94.4516129,89.4136546 C96.7361613,88.6056999 98.3870968,86.4589603 98.3870968,83.9180013 C98.3870968,83.2056741 98.2395161,82.5304269 98.0033871,81.8981145 L113.101871,69.4197029 C113.981452,69.9388236 114.998774,70.2569313 116.096774,70.2569313 C119.351419,70.2569313 122,67.6301027 122,64.4021871 C122,61.861228 120.349065,59.7144885 118.064516,58.9065338 L118.064516,42.5737488 C120.349065,41.7677457 122,39.6210061 122,37.0800471 Z M100.354839,15.6126514 C101.439065,15.6126514 102.322581,16.4869599 102.322581,17.5642328 C102.322581,18.6415058 101.439065,19.5158143 100.354839,19.5158143 C99.2706129,19.5158143 98.3870968,18.6415058 98.3870968,17.5642328 C98.3870968,16.4869599 99.2706129,15.6126514 100.354839,15.6126514 Z M97.5567097,22.6871341 C98.393,23.139901 99.3375161,23.4189771 100.354839,23.4189771 C101.031742,23.4189771 101.671258,23.2823664 102.277323,23.0735472 L111.094774,34.0063063 C110.533968,34.9020822 110.193548,35.9481299 110.193548,37.0800471 C110.193548,37.3942517 110.238806,37.6967468 110.288,37.9992419 L96.3485161,45.5401526 L86.1969355,37.150304 C86.4330645,36.5160401 86.5806452,35.8407929 86.5806452,35.1284657 C86.5806452,34.3361236 86.4173226,33.57891 86.1280645,32.8900018 L97.5567097,22.6871341 Z M72.8064516,54.6442799 C71.8973548,54.6442799 71.0472903,54.8648086 70.2779032,55.2317059 L61.9405806,46.9628554 L76.6592903,39.3926711 C77.7159677,40.372365 79.1209355,40.9832099 80.6774194,40.9832099 C81.7754194,40.9832099 82.7907742,40.6651022 83.6723226,40.1459815 L92.6314516,47.5502814 L76.7261935,56.154804 C75.6813226,55.2258512 74.3176774,54.6442799 72.8064516,54.6442799 Z M74.7741935,60.4990242 C74.7741935,61.5762972 73.8906774,62.4506056 72.8064516,62.4506056 C71.7222258,62.4506056 70.8387097,61.5762972 70.8387097,60.4990242 C70.8387097,59.4217513 71.7222258,58.5474428 72.8064516,58.5474428 C73.8906774,58.5474428 74.7741935,59.4217513 74.7741935,60.4990242 Z M45.0239032,39.006258 L48.3277419,49.5643135 L31.5665161,58.1844486 C30.8640323,57.534572 30.004129,57.0622893 29.0478065,56.8105353 L26.3205161,36.0691279 L39.8034839,35.3997355 C40.6594516,37.4567023 42.6665484,38.9125821 45.0239032,39.006258 Z M43.2903226,33.1768842 C43.2903226,32.0996113 44.1738387,31.2253028 45.2580645,31.2253028 C46.3422903,31.2253028 47.2258065,32.0996113 47.2258065,33.1768842 C47.2258065,34.2541572 46.3422903,35.1284657 45.2580645,35.1284657 C44.1738387,35.1284657 43.2903226,34.2541572 43.2903226,33.1768842 Z M49.5103548,53.3542846 L54.5005484,69.3045596 L33.4398065,62.3413171 C33.435871,62.1071273 33.4004516,61.8807439 33.3689677,61.6543604 L49.5103548,53.3542846 Z M49.4965806,40.1420784 L55.3565161,45.9519363 L51.8755806,47.7415364 L49.4965806,40.1420784 Z M50.5709677,35.6846664 C50.9389355,34.921598 51.1612903,34.0785149 51.1612903,33.1768842 C51.1612903,32.3455106 50.9802581,31.5570717 50.6654194,30.8408413 L60.0082581,22.1914324 L75.0693548,33.3935098 C74.8942258,33.9477589 74.7741935,34.5215238 74.7741935,35.1284657 C74.7741935,35.4016871 74.8194516,35.6612474 74.854871,35.9247109 L59.0204516,44.0667086 L50.5709677,35.6846664 Z M78.7096774,35.1284657 C78.7096774,34.0511927 79.5931935,33.1768842 80.6774194,33.1768842 C81.7616452,33.1768842 82.6451613,34.0511927 82.6451613,35.1284657 C82.6451613,36.2057386 81.7616452,37.0800471 80.6774194,37.0800471 C79.5931935,37.0800471 78.7096774,36.2057386 78.7096774,35.1284657 Z M95.884129,50.2376091 L109.983,61.8905018 L79.4338065,59.1368204 L95.884129,50.2376091 Z M74.7741935,3.90316285 C75.8584194,3.90316285 76.7419355,4.77747133 76.7419355,5.85474428 C76.7419355,6.93201723 75.8584194,7.8063257 74.7741935,7.8063257 C73.6899677,7.8063257 72.8064516,6.93201723 72.8064516,5.85474428 C72.8064516,4.77747133 73.6899677,3.90316285 74.7741935,3.90316285 Z M72.0705161,11.0283866 C72.8831935,11.4479766 73.7942581,11.7094886 74.7741935,11.7094886 C76.4290645,11.7094886 77.9206129,11.0264351 78.995,9.93550104 L94.5047419,17.0353543 C94.489,17.2129482 94.4516129,17.3827358 94.4516129,17.5642328 C94.4516129,18.3585265 94.6149355,19.1137885 94.9041935,19.8046483 L83.4755484,30.0055644 C82.6392581,29.5527975 81.6947419,29.2737214 80.6774194,29.2737214 C79.4692258,29.2737214 78.3456452,29.6386671 77.409,30.25927 L62.9303548,19.4884921 L72.0705161,11.0283866 Z M69.2330323,7.8063257 C69.2802581,7.9331785 69.3137097,8.06588603 69.3668387,8.18883566 L59.7308065,17.1075628 L47.2258065,7.8063257 L69.2330323,7.8063257 Z M41.3225806,3.90316285 C42.4068065,3.90316285 43.2903226,4.77747133 43.2903226,5.85474428 C43.2903226,6.93201723 42.4068065,7.8063257 41.3225806,7.8063257 C40.2383548,7.8063257 39.3548387,6.93201723 39.3548387,5.85474428 C39.3548387,4.77747133 40.2383548,3.90316285 41.3225806,3.90316285 Z M27.5483871,15.6126514 C27.5483871,15.3706553 27.5050968,15.1384171 27.4755806,14.9042274 L37.2355806,10.0643054 C38.2981613,11.0771762 39.7346129,11.7094886 41.3225806,11.7094886 C42.5307742,11.7094886 43.6543548,11.3445428 44.591,10.7239399 L56.8087097,19.8124546 L47.9617419,28.0012903 C47.1490645,27.5817003 46.238,27.32214 45.2580645,27.32214 C42.5937419,27.32214 40.3623226,29.0922243 39.6303226,31.5004758 L25.8089032,32.1854809 L24.3134194,20.8058096 C26.2240968,19.8358736 27.5483871,17.8842922 27.5483871,15.6126514 Z M21.6451613,13.66107 C22.7293871,13.66107 23.6129032,14.5353785 23.6129032,15.6126514 C23.6129032,16.6899244 22.7293871,17.5642328 21.6451613,17.5642328 C20.5609355,17.5642328 19.6774194,16.6899244 19.6774194,15.6126514 C19.6774194,14.5353785 20.5609355,13.66107 21.6451613,13.66107 Z M19.7207097,21.1219658 C19.9489677,21.200029 20.1732903,21.283947 20.4113871,21.3346882 L21.8635806,32.3825906 L11.3578065,32.9036628 C11.2338387,32.6050709 11.0744516,32.3259947 10.9032581,32.0527733 L19.7207097,21.1219658 Z M5.90322581,33.1768842 C6.98745161,33.1768842 7.87096774,34.0511927 7.87096774,35.1284657 C7.87096774,36.2057386 6.98745161,37.0800471 5.90322581,37.0800471 C4.819,37.0800471 3.93548387,36.2057386 3.93548387,35.1284657 C3.93548387,34.0511927 4.819,33.1768842 5.90322581,33.1768842 Z M5.90322581,60.4990242 C4.819,60.4990242 3.93548387,59.6247157 3.93548387,58.5474428 C3.93548387,57.4701698 4.819,56.5958614 5.90322581,56.5958614 C6.98745161,56.5958614 7.87096774,57.4701698 7.87096774,58.5474428 C7.87096774,59.6247157 6.98745161,60.4990242 5.90322581,60.4990242 Z M22.4519355,59.5486041 L11.712,57.6126353 C11.3637097,55.4873631 9.86822581,53.758262 7.87096774,53.0517895 L7.87096774,40.6221674 C9.62816129,39.9996129 10.9898387,38.5847164 11.5309677,36.8029225 L22.3771613,36.2642861 L25.1201935,57.1266915 C23.9907097,57.6360543 23.0678387,58.4888953 22.4519355,59.5486041 Z M27.5483871,64.4021871 C26.4641613,64.4021871 25.5806452,63.5278786 25.5806452,62.4506056 C25.5806452,61.3733327 26.4641613,60.4990242 27.5483871,60.4990242 C28.6326129,60.4990242 29.516129,61.3733327 29.516129,62.4506056 C29.516129,63.5278786 28.6326129,64.4021871 27.5483871,64.4021871 Z M35.4193548,83.9180013 C34.335129,83.9180013 33.4516129,83.0436928 33.4516129,81.9664199 C33.4516129,80.8891469 34.335129,80.0148385 35.4193548,80.0148385 C36.5035806,80.0148385 37.3870968,80.8891469 37.3870968,81.9664199 C37.3870968,83.0436928 36.5035806,83.9180013 35.4193548,83.9180013 Z M58.1743226,86.3828487 L41.2871613,81.597571 C41.0884194,78.5433461 38.5480645,76.1116756 35.4193548,76.1116756 C35.3406452,76.1116756 35.265871,76.1311914 35.1871613,76.1350946 L31.4327097,66.8240996 C31.7062258,66.5840551 31.9541613,66.3225432 32.1804516,66.0376123 L55.9389677,73.8927275 L59.4474516,85.1026112 C58.9614194,85.4656054 58.5285161,85.8930017 58.1743226,86.3828487 Z M62.9677419,117.094886 C61.8835161,117.094886 61,116.220577 61,115.143304 C61,114.066031 61.8835161,113.191723 62.9677419,113.191723 C64.0519677,113.191723 64.9354839,114.066031 64.9354839,115.143304 C64.9354839,116.220577 64.0519677,117.094886 62.9677419,117.094886 Z M62.9677419,91.724327 C61.8835161,91.724327 61,90.8500185 61,89.7727456 C61,88.6954727 61.8835161,87.8211642 62.9677419,87.8211642 C64.0519677,87.8211642 64.9354839,88.6954727 64.9354839,89.7727456 C64.9354839,90.8500185 64.0519677,91.724327 62.9677419,91.724327 Z M63.0346452,83.4027838 L60.5336452,75.4130095 L65.201129,76.9567104 L63.0346452,83.4027838 Z M66.4467097,73.2526088 L59.0991613,70.82289 L53.062129,51.529556 L58.2766452,48.8480831 L67.4955161,57.9912421 C67.1255806,58.7543104 66.9032258,59.5973936 66.9032258,60.4990242 C66.9032258,62.3686392 67.8083871,64.0196771 69.1897419,65.0910953 L66.4467097,73.2526088 Z M92.483871,117.094886 C91.3996452,117.094886 90.516129,116.220577 90.516129,115.143304 C90.516129,114.066031 91.3996452,113.191723 92.483871,113.191723 C93.5680968,113.191723 94.4516129,114.066031 94.4516129,115.143304 C94.4516129,116.220577 93.5680968,117.094886 92.483871,117.094886 Z M92.483871,85.8695827 C91.3996452,85.8695827 90.516129,84.9952743 90.516129,83.9180013 C90.516129,82.8407284 91.3996452,81.9664199 92.483871,81.9664199 C93.5680968,81.9664199 94.4516129,82.8407284 94.4516129,83.9180013 C94.4516129,84.9952743 93.5680968,85.8695827 92.483871,85.8695827 Z M95.4787742,78.8985339 C94.5972258,78.3813648 93.581871,78.063257 92.483871,78.063257 C90.5987742,78.063257 88.9340645,78.9609845 87.8537742,80.3309947 L70.1795161,74.4879599 L72.9166452,66.342059 C75.2425161,66.2991242 77.2319032,64.9174046 78.1528065,62.9404526 L110.396226,65.8463573 C110.447387,66.0415155 110.506419,66.2327704 110.577258,66.4201223 L95.4787742,78.8985339 Z M99.6011935,48.2255286 L112.177032,41.4223158 C112.741774,41.9258238 113.400968,42.3161401 114.131,42.5737488 L114.131,58.9065338 C113.768935,59.0353381 113.426548,59.1934162 113.101871,59.3846712 L99.6011935,48.2255286 Z M116.096774,66.3537685 C115.012548,66.3537685 114.129032,65.47946 114.129032,64.4021871 C114.129032,63.3249141 115.012548,62.4506056 116.096774,62.4506056 C117.181,62.4506056 118.064516,63.3249141 118.064516,64.4021871 C118.064516,65.47946 117.181,66.3537685 116.096774,66.3537685 Z M116.096774,39.0316285 C115.012548,39.0316285 114.129032,38.15732 114.129032,37.0800471 C114.129032,36.0027741 115.012548,35.1284657 116.096774,35.1284657 C117.181,35.1284657 118.064516,36.0027741 118.064516,37.0800471 C118.064516,38.15732 117.181,39.0316285 116.096774,39.0316285 Z" id="Shape" fill="url(#linearGradient-2)"></path>
                    <rect id="Rectangle" fill="#FFFFFF" x="3.77319588" y="0" width="3.77319588" height="3.74226804"></rect>
                    <rect id="Rectangle" fill="#FFFFFF" x="3.77319588" y="7.48453608" width="3.77319588" height="3.74226804"></rect>
                    <rect id="Rectangle" fill="#FFFFFF" x="7.54639175" y="3.74226804" width="3.77319588" height="3.74226804"></rect>
                    <rect id="Rectangle" fill="#FFFFFF" x="0" y="3.74226804" width="3.77319588" height="3.74226804"></rect>
                    <rect id="Rectangle" fill="#FFFFFF" x="101.876289" y="89.814433" width="3.77319588" height="3.74226804"></rect>
                    <rect id="Rectangle" fill="#FFFFFF" x="101.876289" y="97.2989691" width="3.77319588" height="3.74226804"></rect>
                    <rect id="Rectangle" fill="#FFFFFF" x="105.649485" y="93.556701" width="3.77319588" height="3.74226804"></rect>
                    <rect id="Rectangle" fill="#FFFFFF" x="98.1030928" y="93.556701" width="3.77319588" height="3.74226804"></rect>
                    <rect id="Rectangle" fill="#FFFFFF" x="114.453608" y="7.48453608" width="3.77319588" height="3.74226804"></rect>
                    <rect id="Rectangle" fill="#FFFFFF" x="114.453608" y="14.9690722" width="3.77319588" height="3.74226804"></rect>
                    <rect id="Rectangle" fill="#FFFFFF" x="118.226804" y="11.2268041" width="3.77319588" height="3.74226804"></rect>
                    <rect id="Rectangle" fill="#FFFFFF" x="110.680412" y="11.2268041" width="3.77319588" height="3.74226804"></rect>
                    <rect id="Rectangle" fill="#FFFFFF" x="23.8969072" y="93.556701" width="3.77319588" height="3.74226804"></rect>
                    <rect id="Rectangle" fill="#FFFFFF" x="23.8969072" y="101.041237" width="3.77319588" height="3.74226804"></rect>
                    <rect id="Rectangle" fill="#FFFFFF" x="27.6701031" y="97.2989691" width="3.77319588" height="3.74226804"></rect>
                    <rect id="Rectangle" fill="#FFFFFF" x="20.1237113" y="97.2989691" width="3.77319588" height="3.74226804"></rect>
                    <rect id="Rectangle" fill="#FFFFFF" x="11.3195876" y="72.3505155" width="3.77319588" height="3.74226804"></rect>
                    <rect id="Rectangle" fill="#FFFFFF" x="11.3195876" y="79.8350515" width="3.77319588" height="3.74226804"></rect>
                    <rect id="Rectangle" fill="#FFFFFF" x="15.0927835" y="76.0927835" width="3.77319588" height="3.74226804"></rect>
                    <rect id="Rectangle" fill="#FFFFFF" x="7.54639175" y="76.0927835" width="3.77319588" height="3.74226804"></rect>
                </g>
                <g id="Group-4" transform="translate(96.000000, 246.000000)">
                    <polygon id="Polygon-Copy-6" fill="#F544C5" opacity="0.630324591" points="20.0421053 101.787611 37.3990776 111.840708 37.3990776 131.946903 20.0421053 142 2.68513296 131.946903 2.68513296 111.840708"></polygon>
                    <polygon id="Polygon-Copy-7" fill="#54B6FF" opacity="0.257952009" points="40.0842105 67.8584071 57.4411828 77.9115044 57.4411828 98.0176991 40.0842105 108.070796 22.7272382 98.0176991 22.7272382 77.9115044"></polygon>
                    <polygon id="Polygon-Copy-8" fill="#DFDFDF" opacity="0.05078125" points="60.1263158 33.9292035 77.4832881 43.9823009 77.4832881 64.0884956 60.1263158 74.1415929 42.7693435 64.0884956 42.7693435 43.9823009"></polygon>
                    <polygon id="Polygon-Copy-9" fill="#9B9B9B" opacity="0.117838542" points="98.9578947 33.9292035 116.314867 43.9823009 116.314867 64.0884956 98.9578947 74.1415929 81.6009224 64.0884956 81.6009224 43.9823009"></polygon>
                    <polygon id="Polygon-Copy-10" fill="#9B9B9B" opacity="0.257952009" points="80.1684211 0 97.5253934 10.0530973 97.5253934 30.159292 80.1684211 40.2123894 62.8114487 30.159292 62.8114487 10.0530973"></polygon>
                    <polygon id="Polygon-Copy-11" fill="#9B9B9B" opacity="0.118861607" points="20.0421053 33.9292035 37.3990776 43.9823009 37.3990776 64.0884956 20.0421053 74.1415929 2.68513296 64.0884956 2.68513296 43.9823009"></polygon>
                </g>
                <text id="11001010101010" opacity="0.0884951637" font-family="Helvetica" font-size="6.4" font-weight="normal" letter-spacing="-0.711111116" fill="#FFFFFF">
                    <tspan x="117.29809" y="218">11001010101010</tspan>
                </text>
                <text id="11001010101010-copy-2" opacity="0.0884951637" font-family="Helvetica" font-size="6.4" font-weight="normal" letter-spacing="-0.711111116" fill="#FFFFFF">
                    <tspan x="104.29809" y="167">11001010101010</tspan>
                </text>
                <g id="Group-2" filter="url(#filter-3)" transform="translate(26.061200, 76.959803)">
                    <g id="Path-21-+-Path-21-Copy-+-Path-21-Copy-2-+-Path-21-Copy-3-+-Path-21-Copy-4-+-Path-21-Copy-5-Mask" transform="translate(45.535389, 27.141726)">
                        <mask id="mask-5" fill="white">
                            <use xlink:href="#path-4"></use>
                        </mask>
                        <use id="Mask" fill="#F5F5F5" xlink:href="#path-4"></use>
                        <polygon id="Path-21" fill="#D8D8D8" mask="url(#mask-5)" points="-33.9050683 16.2288389 -12.5040982 28.1702357 -11.0811534 24.8578749 -29.0582415 13.3501185"></polygon>
                        <polygon id="Path-21-Copy" fill="#D8D8D8" mask="url(#mask-5)" transform="translate(-12.606919, 11.448904) rotate(13.000000) translate(12.606919, -11.448904) " points="-24.0138579 6.92626767 -2.62508362 18.8542338 -1.19998038 15.5402944 -19.165756 4.04357339"></polygon>
                        <polygon id="Path-21-Copy-2" fill="#D8D8D8" mask="url(#mask-5)" transform="translate(4.955232, 6.447308) rotate(38.000000) translate(-4.955232, -6.447308) " points="-6.43559712 1.93123979 14.9195874 13.8534288 16.3460603 10.534656 -1.5902037 -0.958812352"></polygon>
                        <polygon id="Path-21-Copy-3" fill="#D8D8D8" mask="url(#mask-5)" transform="translate(22.515973, 5.198378) rotate(65.000000) translate(-22.515973, -5.198378) " points="11.1402897 0.67128943 32.4683689 12.6180917 33.891656 9.29496284 15.9776633 -2.22133615"></polygon>
                        <polygon id="Path-21-Copy-4" fill="#D8D8D8" mask="url(#mask-5)" transform="translate(37.566628, 7.699445) rotate(82.000000) translate(-37.566628, -7.699445) " points="26.1934303 3.15940871 47.5199637 15.1297033 48.9398263 11.8059917 31.0259374 0.269187374"></polygon>
                        <polygon id="Path-21-Copy-5" fill="#D8D8D8" mask="url(#mask-5)" transform="translate(52.616114, 20.200550) rotate(112.000000) translate(-52.616114, -20.200550) " points="41.2314715 15.6413717 62.5856293 27.6410768 64.0007564 24.320947 46.0612989 12.7600224"></polygon>
                        <polygon id="Path-21-Copy-6" fill="#D8D8D8" mask="url(#mask-5)" transform="translate(65.159626, 32.701222) rotate(140.000000) translate(-65.159626, -32.701222) " points="53.7561643 28.1424586 75.1474573 40.1347831 76.5630882 36.8202111 58.5917299 25.2676617"></polygon>
                        <polygon id="Path-21-Copy-7" fill="#D8D8D8" mask="url(#mask-5)" transform="translate(65.160188, 48.953984) rotate(150.000000) translate(-65.160188, -48.953984) " points="53.7514479 44.4002225 75.151884 56.3819393 76.5689273 53.0688726 58.5901781 41.5260288"></polygon>
                        <polygon id="Path-21-Copy-8" fill="#D8D8D8" mask="url(#mask-5)" transform="translate(63.905857, 65.206662) rotate(150.000000) translate(-63.905857, -65.206662) " points="52.4971175 60.6529002 73.8975535 72.634617 75.3145968 69.3215503 57.3358476 57.7787065"></polygon>
                        <polygon id="Path-21-Copy-9" fill="#D8D8D8" mask="url(#mask-5)" transform="translate(58.888535, 87.710369) rotate(150.000000) translate(-58.888535, -87.710369) " points="47.4797957 83.1566078 68.8802317 95.1383246 70.2972751 91.8252578 52.3185259 80.2824141"></polygon>
                        <polygon id="Path-21-Copy-10" fill="#D8D8D8" mask="url(#mask-5)" transform="translate(53.870603, 107.713595) rotate(139.000000) translate(-53.870603, -107.713595) " points="42.4677489 103.154456 63.8579364 115.147651 65.2734568 111.832904 47.3030138 100.279539"></polygon>
                        <polygon id="Path-21-Copy-11" fill="#D8D8D8" mask="url(#mask-5)" transform="translate(60.141919, 128.968141) rotate(117.000000) translate(-60.141919, -128.968141) " points="48.7539942 124.407479 70.1150334 136.408616 71.5298434 133.089473 53.5843269 121.527665"></polygon>
                        <polygon id="Path-21-Copy-12" fill="#D8D8D8" mask="url(#mask-5)" transform="translate(71.433477, 141.471495) rotate(83.000000) translate(-71.433477, -141.471495) " points="60.0602083 136.93065 81.3870879 148.902344 82.8067452 145.578652 64.8924833 134.040646"></polygon>
                        <polygon id="Path-21-Copy-13" fill="#D8D8D8" mask="url(#mask-5)" transform="translate(85.232269, 148.972276) rotate(69.000000) translate(-85.232269, -148.972276) " points="73.8577793 144.442347 95.1842363 156.394536 96.6067592 153.071085 78.693893 141.550017"></polygon>
                    </g>
                    <path d="M17.7323543,37.7938882 C23.9163779,24.3600226 31.6026113,20.0904643 40.7910545,24.9852135 C49.9794977,29.8799626 51.0592704,38.9350997 44.0303728,52.1506246 L53.5738784,56.7082827 C64.7893593,34.7948924 61.6284253,20.7096848 44.0910764,14.45266 C26.5537274,8.1956352 14.3764901,14.8377778 7.55936431,34.3790879 L17.7323543,37.7938882 Z" id="Path-20" fill="#E0E0E0" transform="translate(33.847699, 34.442306) rotate(51.000000) translate(-33.847699, -34.442306) "></path>
                </g>
                <text id="11001010101010-copy" opacity="0.0884951637" font-family="Helvetica" font-size="6.4" font-weight="normal" letter-spacing="-0.711111116" fill="#FFFFFF">
                    <tspan x="117.29809" y="243">11001010101010</tspan>
                </text>
                <text id="11001010101010-copy-3" opacity="0.0884951637" font-family="Helvetica" font-size="6.4" font-weight="normal" letter-spacing="-0.711111116" fill="#FFFFFF">
                    <tspan x="79.2980903" y="193">11001010101010</tspan>
                </text>
                <g id="Group" transform="translate(136.000000, 99.000000)">
                    <path d="M83.9616432,218 C88.9536988,218 93.0005595,213.955149 93.0005595,208.965573 C93.0005595,203.975997 88.9536988,204.68676 83.9616432,204.68676 C78.9695875,204.68676 74.9227268,203.975997 74.9227268,208.965573 C74.9227268,213.955149 78.9695875,218 83.9616432,218 Z" id="Oval-Copy" stroke="url(#linearGradient-6)" stroke-width="2.63999984" opacity="0.529110863"></path>
                    <path d="M65.066785,209.59664 C73.012019,212.918763 85.5470207,212.918763 102.67179,209.59664 C102.67179,209.739469 103.716424,208.103061 105.805691,204.687415 C89.469007,208.806931 74.4760874,208.074332 60.8269321,202.489617 C60.8269321,202.489617 62.2402164,204.858625 65.066785,209.59664 Z" id="Path-4" fill="#D8D8D8"></path>
                    <path d="M60.8269321,203.242486 L47.042417,192.512327 C77.9942108,198.6751 102.944916,199.184841 121.894532,194.041552 C121.894532,194.041552 116.531585,197.841129 105.805691,205.440284 C100.025423,207.174624 92.5289635,208.041794 83.3163116,208.041794 C74.1036597,208.041794 66.6071999,206.442024 60.8269321,203.242486 Z" id="Path-14" fill="#D8D8D8"></path>
                    <g id="Path-19" transform="translate(6.708074, 90.581189)">
                        <mask id="mask-8" fill="white">
                            <use xlink:href="#path-7"></use>
                        </mask>
                        <use id="Mask" fill="#F5F5F5" xlink:href="#path-7"></use>
                        <path d="M27.4706777,93.4503771 C31.0646728,88.4700116 33.6012173,82.5209578 38.2526629,78.5092806 C59.2109236,60.4336581 74.3391455,95.5977871 94.8873631,89.1168348 C103.267395,86.4737546 105.722682,75.04998 112.781867,61.9710684 C122.239353,44.4487028 147.81773,47.9958602 158.522677,62.5199144" stroke="url(#linearGradient-9)" stroke-width="0.5" opacity="0.313616071" mask="url(#mask-8)"></path>
                    </g>
                    <path d="M11.8037629,86.7225644 C10.3151076,87.6724 9.24617158,88.5938076 8.596955,89.4867874 C1.43316321,99.3403886 -1.23311507,112.474396 0.521881357,126.618276 C2.51544685,142.684835 58.7278809,139.58367 169.159183,117.314784 C171.053061,112.177983 172,105.648789 172,97.7271997 C172,89.8056107 171.053061,84.5552263 169.159183,81.9760466 C139.208495,85.7286827 117.207739,88.5970634 103.156915,90.5811888 C88.0313777,92.7170751 51.3659447,95.1040833 35.7299853,95.1040833 C16.3820443,95.1040833 8.40663686,92.3102437 11.8037629,86.7225644 Z" id="Path-16" fill="url(#linearGradient-10)"></path>
                    <path d="M91.2864711,78.6962735 C42.2860772,75.1178973 14.8668046,78.612131 9.02865324,89.1789748 C4.85447158,96.7340932 30.9510748,98.4129137 87.3184628,92.7096984 C102.298425,91.1940356 129.578666,87.6161517 169.159183,81.9760466 L91.2864711,78.6962735 Z" id="Path-17" fill="#515151"></path>
                    <path d="M8.86336005,78.068413 C26.3053292,83.8378473 45.101562,86.7225644 65.2520585,86.7225644 C122.339704,86.7225644 146.561357,85.5104491 169.159183,81.9760466 C169.159183,81.2953669 172.249221,6.59004187 100.543492,0.425790196 C53.3748588,-3.62910648 22.2953339,21.2777729 7.3049171,75.1464285 L7.30492982,75.146432 C6.96159392,76.3802231 7.6474796,77.6662255 8.86336005,78.068413 Z" id="Path-18" fill="#F5F5F5"></path>
                    <g id="Rectangle" transform="translate(28.221659, 30.535643)">
                        <mask id="mask-12" fill="white">
                            <use xlink:href="#path-11"></use>
                        </mask>
                        <use id="Mask" fill="#CCCCCC" xlink:href="#path-11"></use>
                        <path d="M14.0933181,0.255093975 C23.6129,4.33743898 39.0146851,6.37861149 60.2986733,6.37861149 C75.5309405,6.37861149 90.7632076,6.37861149 105.995475,6.37861149 C109.242909,6.37861149 111.875474,9.011177 111.875474,12.2586111 L111.875474,29.2445626 C111.87548,31.6792347 110.37503,33.8620932 108.101952,34.7343001 C90.5962278,41.4514536 71.6282774,43.9646093 51.1981007,42.2737671 C31.9229521,40.6785173 15.6180046,37.3372015 2.28325812,32.2498198 C-0.692552784,31.1145111 -2.22343355,27.8162553 -1.16964212,24.8106106 L6.22702067,3.71370296 C7.30145948,0.649161025 10.6567674,-0.964134146 13.7213086,0.110306644 C13.8469148,0.154344687 13.9709894,0.202634952 14.0933181,0.255093975 Z" fill="url(#linearGradient-13)" mask="url(#mask-12)"></path>
                    </g>
                </g>
                <circle id="Oval" fill="#FFFFFF" opacity="0.347935268" cx="189.5" cy="152.5" r="12.5"></circle>
                <circle id="Oval" fill="#FFFFFF" cx="196" cy="145" r="5"></circle>
                <g id="Group-3" transform="translate(141.000000, 59.000000)">
                    <circle id="Oval-Copy-4" fill="#FF75DA" cx="8" cy="8" r="8"></circle>
                    <g id="Oval-Copy-5">
                        <use fill="black" fill-opacity="1" filter="url(#filter-15)" xlink:href="#path-14"></use>
                        <use fill="#DD29AC" fill-rule="evenodd" xlink:href="#path-14"></use>
                    </g>
                </g>
                <g id="Group-3-Copy" transform="translate(378.000000, 259.000000)">
                    <circle id="Oval-Copy-4" fill="#FF75DA" cx="8" cy="8" r="8"></circle>
                    <g id="Oval-Copy-5">
                        <use fill="black" fill-opacity="1" filter="url(#filter-17)" xlink:href="#path-16"></use>
                        <use fill="#DD29AC" fill-rule="evenodd" xlink:href="#path-16"></use>
                    </g>
                </g>
                <g id="Group-3-Copy-2" transform="translate(328.000000, 310.000000)">
                    <circle id="Oval-Copy-4" fill="#FF75DA" cx="8" cy="8" r="8"></circle>
                    <g id="Oval-Copy-5">
                        <use fill="black" fill-opacity="1" filter="url(#filter-19)" xlink:href="#path-18"></use>
                        <use fill="#DD29AC" fill-rule="evenodd" xlink:href="#path-18"></use>
                    </g>
                </g>
                <rect id="Rectangle" fill="#FFFFFF" fill-rule="nonzero" x="136" y="269" width="4" height="4"></rect>
                <rect id="Rectangle" fill="#FFFFFF" fill-rule="nonzero" x="136" y="276" width="4" height="4"></rect>
                <rect id="Rectangle" fill="#FFFFFF" fill-rule="nonzero" x="132" y="272" width="4" height="4"></rect>
                <rect id="Rectangle" fill="#FFFFFF" fill-rule="nonzero" x="140" y="272" width="4" height="4"></rect>
                <rect id="Rectangle" fill="#FFFFFF" fill-rule="nonzero" x="98" y="331" width="4" height="4"></rect>
                <rect id="Rectangle" fill="#FFFFFF" fill-rule="nonzero" x="98" y="338" width="4" height="4"></rect>
                <rect id="Rectangle" fill="#FFFFFF" fill-rule="nonzero" x="94" y="335" width="4" height="4"></rect>
                <rect id="Rectangle" fill="#FFFFFF" fill-rule="nonzero" x="102" y="335" width="4" height="4"></rect>
                <rect id="Rectangle" fill="#FFFFFF" fill-rule="nonzero" x="115" y="356" width="4" height="4"></rect>
                <rect id="Rectangle" fill="#FFFFFF" fill-rule="nonzero" x="115" y="364" width="4" height="4"></rect>
                <rect id="Rectangle" fill="#FFFFFF" fill-rule="nonzero" x="111" y="360" width="4" height="4"></rect>
                <rect id="Rectangle" fill="#FFFFFF" fill-rule="nonzero" x="119" y="360" width="4" height="4"></rect>
                <text id="010111010" font-family="Helvetica" font-size="6.4" font-weight="normal" letter-spacing="-0.711111116">
                    <tspan x="420.654688" y="298" fill="#48C1F8">010</tspan>
                    <tspan x="429.199479" y="298" fill="#F544C5">11</tspan>
                    <tspan x="433.952257" y="298" fill="#48C1F8">1010</tspan>
                </text>
            </g>
        </g>
    </g>
</svg>