<svg xmlns="http://www.w3.org/2000/svg" xmlns:xlink="http://www.w3.org/1999/xlink" viewBox="0 0 963.16 670.71"><defs><style>.cls-1{fill:url(#linear-gradient);}.cls-2{fill:url(#linear-gradient-2);}.cls-3{fill:none;}.cls-4{fill:url(#linear-gradient-3);}.cls-5{fill:url(#linear-gradient-4);}.cls-6{fill:url(#linear-gradient-5);}.cls-7{clip-path:url(#clip-path);}.cls-8{fill:url(#linear-gradient-7);}.cls-9{fill:url(#linear-gradient-8);}.cls-10{clip-path:url(#clip-path-2);}.cls-11{fill:url(#linear-gradient-10);}.cls-12{clip-path:url(#clip-path-3);}.cls-13{fill:url(#linear-gradient-11);}.cls-14{clip-path:url(#clip-path-4);}.cls-15{fill:url(#linear-gradient-13);}.cls-16{clip-path:url(#clip-path-5);}.cls-17{fill:url(#linear-gradient-14);}</style><linearGradient id="linear-gradient" x1="15359.41" y1="-62.06" x2="15650.78" y2="-62.06" gradientTransform="matrix(-1, 0, 0, 1, 15864.86, 110.7)" gradientUnits="userSpaceOnUse"><stop offset="0" stop-color="#5efaf7"/><stop offset="0.19" stop-color="#4be3f8"/><stop offset="0.51" stop-color="#30c3fa"/><stop offset="0.78" stop-color="#20affb"/><stop offset="0.96" stop-color="#1aa8fb"/><stop offset="1" stop-color="#1aa8fb"/></linearGradient><linearGradient id="linear-gradient-2" x1="14812.62" y1="-56" x2="15103.99" y2="-56" gradientTransform="translate(15689.73 -0.65) rotate(180)" xlink:href="#linear-gradient"/><linearGradient id="linear-gradient-3" x1="321.3" y1="289.21" x2="655.2" y2="289.21" gradientTransform="matrix(1, 0, 0, 1, 0, 0)" xlink:href="#linear-gradient"/><linearGradient id="linear-gradient-4" x1="-13.93" y1="85.85" x2="145.7" y2="287.35" gradientUnits="userSpaceOnUse"><stop offset="0" stop-color="#5efaf7"/><stop offset="0.19" stop-color="#56f1f7"/><stop offset="0.5" stop-color="#42d8f9"/><stop offset="0.88" stop-color="#21b0fb"/><stop offset="0.96" stop-color="#1aa8fb"/><stop offset="1" stop-color="#1aa8fb"/></linearGradient><linearGradient id="linear-gradient-5" x1="118.24" y1="220.76" x2="391.01" y2="220.76" gradientUnits="userSpaceOnUse"><stop offset="0" stop-color="#4338ff"/><stop offset="0.12" stop-color="#4341fb"/><stop offset="0.33" stop-color="#435af1"/><stop offset="0.59" stop-color="#4282e0"/><stop offset="0.89" stop-color="#41b9ca"/><stop offset="0.96" stop-color="#41c7c4"/><stop offset="1" stop-color="#41c7c4"/></linearGradient><clipPath id="clip-path" transform="translate(0 163.16)"><path class="cls-1" d="M358.88,97.12H67.51l46.05-69.49A52,52,0,0,1,134.88,6.36,46.31,46.31,0,0,1,158.19.47L296,.16Z"/></clipPath><linearGradient id="linear-gradient-7" x1="15842.35" y1="-65" x2="15506.68" y2="-60.35" gradientTransform="matrix(-1, 0, 0, 1, 15864.86, 273.86)" gradientUnits="userSpaceOnUse"><stop offset="0" stop-color="#5efaf7"/><stop offset="0.15" stop-color="#56f1f7"/><stop offset="0.4" stop-color="#42d8f9"/><stop offset="0.71" stop-color="#21b0fb"/><stop offset="0.76" stop-color="#1aa8fb"/><stop offset="0.87" stop-color="#1aa8fb"/></linearGradient><linearGradient id="linear-gradient-8" x1="336.56" y1="61.09" x2="499.73" y2="189.4" xlink:href="#linear-gradient-5"/><clipPath id="clip-path-2" transform="translate(0 163.16)"><path class="cls-2" d="M730.55.16H439.18l46.05,79.11a56.1,56.1,0,0,0,21.32,24.21c6.36,3.91,14.27,7,23.31,6.71l137.83.35Z"/></clipPath><linearGradient id="linear-gradient-10" x1="15295.67" y1="-58.94" x2="14959.81" y2="-54.29" gradientTransform="translate(798.01 15137.84) rotate(-90.52)" xlink:href="#linear-gradient-4"/><clipPath id="clip-path-3" transform="translate(0 163.16)"><path class="cls-3" d="M584.1,0,685.28.16,503,313.11c-11.43,24.77-13.46,31.11-13.77,31.29H371l94.25-186.54,68.5-127.71A57.13,57.13,0,0,1,584.1,0Z"/></clipPath><linearGradient id="linear-gradient-11" x1="730.27" y1="178.93" x2="357.07" y2="463.54" xlink:href="#linear-gradient-5"/><clipPath id="clip-path-4" transform="translate(0 163.16)"><path class="cls-4" d="M489.26,344.4h333.9l-46-79.12a56.21,56.21,0,0,0-21.32-24.21c-6.36-3.9-14.28-7-23.31-6.7L552.13,234Z"/></clipPath><linearGradient id="linear-gradient-13" x1="868.27" y1="286.27" x2="532.42" y2="290.92" gradientTransform="translate(939.49 -369.58) rotate(89.48)" xlink:href="#linear-gradient-7"/><clipPath id="clip-path-5" transform="translate(0 163.16)"><path class="cls-3" d="M772.26,60.28,626.75,313.11c-11.43,24.77-42,31.11-42.3,31.29H482.1L588.43,157.86,673.1,0h64.3C768.33,0,787.69,33.47,772.26,60.28Z"/></clipPath><linearGradient id="linear-gradient-14" x1="968.06" y1="3214.9" x2="1628.33" y2="3214.9" gradientTransform="translate(789.82 -3107.57) rotate(24.07)" xlink:href="#linear-gradient-4"/></defs><g id="Layer_2" data-name="Layer 2"><g id="Layer_1-2" data-name="Layer 1"><path class="cls-5" d="M67.51,97.12l81.4,137.79L95,235.22C66,233.29,52.81,253,44.35,268.14L0,345.05H181a54.82,54.82,0,0,0,46.91-26.45L271,241.11l-84.63-144" transform="translate(0 163.16)"/><path class="cls-6" d="M302.39,97.12,391,243.41,346.16,318a54.82,54.82,0,0,1-46.91,26.45h-181l44.35-76.91c8.46-15.12,21.65-34.85,50.61-32.93l53.94-.3L186.4,97.12h116" transform="translate(0 163.16)"/><path class="cls-1" d="M358.88,97.12H67.51l46.05-69.49A52,52,0,0,1,134.88,6.36,46.31,46.31,0,0,1,158.19.47L296,.16Z" transform="translate(0 163.16)"/><g class="cls-7"><polygon class="cls-8" points="401.38 160.67 66.52 163.32 67.54 262.92 402.4 260.27 401.38 160.67"/></g><path class="cls-9" d="M428.55,30.87C413.32.16,387.45.16,387.45.16H284.94L433.05,247.44c-2.47-7.23,59.28-84.87,59.44-92.24" transform="translate(0 163.16)"/><path class="cls-2" d="M730.55.16H439.18l46.05,79.11a56.1,56.1,0,0,0,21.32,24.21c6.36,3.91,14.27,7,23.31,6.71l137.83.35Z" transform="translate(0 163.16)"/><g class="cls-10"><rect class="cls-11" x="549.43" y="-112.09" width="113.39" height="334.88" transform="translate(545.32 824.11) rotate(-89.48)"/></g><g class="cls-12"><polygon class="cls-13" points="863.47 340.74 523.02 670.71 192.77 329.98 527.29 0 863.47 340.74"/></g><path class="cls-4" d="M489.26,344.4h333.9l-46-79.12a56.21,56.21,0,0,0-21.32-24.21c-6.36-3.9-14.28-7-23.31-6.7L552.13,234Z" transform="translate(0 163.16)"/><g class="cls-14"><rect class="cls-15" x="599.52" y="121.77" width="113.39" height="334.88" transform="translate(361.1 1105.94) rotate(-89.48)"/></g><g class="cls-16"><polygon class="cls-17" points="963.16 496.83 527.25 663.51 364.69 217.71 800.59 51.02 963.16 496.83"/></g></g></g></svg>