<svg width="44" height="45" xmlns="http://www.w3.org/2000/svg">
    <g transform="translate(0 .5)" fill-rule="nonzero" fill="none">
        <ellipse fill="#E31837" cx="22.002" cy="22" rx="21.998" ry="22"/>
        <path d="M0 22C.011 10.703 8.587 1.257 19.83.158c11.242-1.099 21.485 6.508 23.683 17.59 2.198 11.08-4.366 22.021-15.177 25.297-10.81 3.276-22.343-2.181-26.665-12.618A22.05 22.05 0 0 1 0 22zm0 0c-.01 11.294 8.547 20.754 19.784 21.873 11.238 1.12 21.492-6.468 23.709-17.542C45.71 15.257 39.167 4.307 28.365 1.013 17.563-2.281 6.024 3.155 1.685 13.583A22.034 22.034 0 0 0 0 22z" fill="#556571"/>
        <path d="M22.965 22.175s.912-.602 1.445-.207.481 1.446.481 1.446l-7.156 11.25a1.311 1.311 0 0 1-1.649-.378c-.704-.895-3.543-5.963-3.543-5.963s-.43-.798.413-1.572L23 10.098h7.534s1.342-.033 1.205.998c-.13.968-3.297 10.857-14.847 10.188a12.562 12.562 0 0 1-5.248-1.473c-2.45-1.323-5.754-3.88-6.774-8.406 0 0-.448-1.186.688-1.307 1.135-.12 8.979 0 8.979 0s1.152.327.481 1.48c-.671 1.154-2.301 3.894-2.301 3.894s-1.756 1.308-1.892-.998l1.441-2.373H7.38s2.856 7.43 11.216 6.983c0 0 7 .569 10.493-6.914h-5.024l-9.15 15.681 2.2 3.785 5.85-9.461z" fill="#556571" opacity=".054"/>
        <path fill="#A6A6A6" d="M28.651 22.429v2.412h5.06l-2.235 2.943 1.353 1.883 4.708-5.825v-1.413zM28.45 31.308h2.413s.5 2.096 2.353 1.949c1.854-.147 2.431-.99 2.119-2.884l1.305-1.943s3.65 3.691-.777 6.474c-3.632 2.284-7.721-1.22-7.413-3.596z"/>
        <path d="M23.543 22.06s.919-.602 1.444-.207c.526.395.482 1.445.482 1.445l-7.157 11.25a1.31 1.31 0 0 1-1.651-.378c-.705-.893-3.542-5.962-3.542-5.962s-.43-.798.412-1.572L23.576 9.985h7.535s1.342-.034 1.204.997c-.129.969-3.297 10.857-14.847 10.19a12.562 12.562 0 0 1-5.255-1.475c-2.45-1.322-5.746-3.887-6.767-8.405 0 0-.447-1.186.688-1.307 1.136-.121 8.98 0 8.98 0s1.152.326.48 1.48a679.593 679.593 0 0 1-2.297 3.887s-1.76 1.307-1.899-.997l1.445-2.374H7.957s2.856 7.431 11.216 6.984c0 0 7 .568 10.493-6.916h-5.023l-9.151 15.689 2.201 3.784 5.85-9.462zM28.346 22.316v2.411h5.06l-2.235 2.943 1.353 1.883 4.707-5.826v-1.411zM28.052 31.194h2.412s.5 2.095 2.354 1.948c1.853-.147 2.431-.989 2.118-2.882l1.306-1.943s3.65 3.69-.775 6.473c-3.634 2.285-7.723-1.22-7.415-3.596z" fill="#FFF"/>
    </g>
</svg>
