<svg xmlns="http://www.w3.org/2000/svg" viewBox="0 0 259.42 286.42"><defs><style>.cls-1{fill:#e31837;}.cls-2{fill:#556571;}.cls-3{fill:#fff;}</style></defs><g id="Layer_2" data-name="Layer 2"><g id="Layer_1-2" data-name="Layer 1"><path class="cls-1" d="M0,0H76.38a29.89,29.89,0,0,1,25.88,14.94l78.41,135.78L112.21,271.29a29.88,29.88,0,0,1-26,15.13H10.11l69.4-124.48a22.84,22.84,0,0,0-.1-22.39Z"/><path class="cls-2" d="M136.72,0H245.53a13.86,13.86,0,0,1,12,20.85L191,134.79,124.74,20.84A13.86,13.86,0,0,1,136.72,0Z"/><polygon class="cls-3" points="174.11 21.91 174.11 31.1 193.37 31.1 185.87 40.81 191.02 47.98 207.93 27.29 207.93 21.91 174.11 21.91"/><path class="cls-3" d="M173,55.71h9.18s1.88,7.4,9,7.41c6.46,0,9.65-4.63,8.06-11l5-7.39s13.19,14.36-2.95,24.63C187.42,78.16,171.81,64.75,173,55.71Z"/><path class="cls-3" d="M191,48s6.24-2.37,8.17,4.18l5-7.4s-6-7.47-11.45-2.22Z"/></g></g></svg>