<svg xmlns="http://www.w3.org/2000/svg" viewBox="0 0 280.92 360.9"><defs><style>.cls-1{fill:#ed1c24;}.cls-1,.cls-2,.cls-3{fill-rule:evenodd;}.cls-2,.cls-4{fill:#fff;}.cls-3{fill:#b79a6a;}</style></defs><g id="Layer_2" data-name="Layer 2"><g id="Layer_1-2" data-name="Layer 1"><path class="cls-1" d="M280.92,0V225.6c0,52.2-48.8,134.68-140.46,135.3C48.79,360.28,0,277.8,0,225.6V0Z"/><path class="cls-2" d="M46.08,58l5.26-12.83a34.27,34.27,0,0,0,6.3,3.61,13.7,13.7,0,0,0,5.18,1.14,4.71,4.71,0,0,0,2.66-.64,2,2,0,0,0,1-1.74q0-1.91-4.85-2.91l-2.45-.53a14.47,14.47,0,0,1-7.86-4.45,11.82,11.82,0,0,1-2.72-7.95,15.23,15.23,0,0,1,5.29-12Q59.17,15,67.74,15a29.1,29.1,0,0,1,7.77,1,35.42,35.42,0,0,1,7.7,3.13l-5,12a20.83,20.83,0,0,0-4.77-2.68,13,13,0,0,0-4.65-.92,5,5,0,0,0-2.66.58,1.78,1.78,0,0,0-.94,1.61c0,1.29,2.28,2.44,6.86,3.41l1.68.38a13,13,0,0,1,7.45,4.35,12,12,0,0,1,2.73,8,15.78,15.78,0,0,1-5.49,12.43q-5.5,4.83-14.3,4.82a32.53,32.53,0,0,1-9-1.28,40.26,40.26,0,0,1-9-3.85Zm63.42,0,5.25-12.83a34.65,34.65,0,0,0,6.31,3.61,13.7,13.7,0,0,0,5.18,1.14,4.74,4.74,0,0,0,2.66-.64,2,2,0,0,0,1-1.74q0-1.91-4.86-2.91l-2.44-.53a14.47,14.47,0,0,1-7.86-4.45A11.77,11.77,0,0,1,112,31.66a15.23,15.23,0,0,1,5.29-12Q122.57,15,131.16,15a29.16,29.16,0,0,1,7.77,1,35.42,35.42,0,0,1,7.7,3.13l-5,12a20.68,20.68,0,0,0-4.78-2.68,13,13,0,0,0-4.65-.92,5.07,5.07,0,0,0-2.66.58,1.8,1.8,0,0,0-.94,1.61c0,1.29,2.29,2.44,6.86,3.41l1.69.38a13,13,0,0,1,7.45,4.35,12,12,0,0,1,2.73,8,15.76,15.76,0,0,1-5.5,12.43q-5.49,4.83-14.3,4.82a32.51,32.51,0,0,1-9-1.28,40.26,40.26,0,0,1-9-3.85Z"/><path class="cls-2" d="M116.6,317.89v-14.1h-3.44l1.44-2.89h5.45v17Zm18.74-11.61a2.74,2.74,0,0,0-.71-2,2.52,2.52,0,0,0-1.91-.74,2.47,2.47,0,0,0-1.89.76,2.71,2.71,0,0,0-.72,2,2.8,2.8,0,0,0,.71,2,2.55,2.55,0,0,0,2,.74,2.34,2.34,0,0,0,1.83-.77,2.81,2.81,0,0,0,.71-2Zm-1.44,5a6.3,6.3,0,0,1-1,.39l-.55.08c-.21,0-.42,0-.64,0a4.7,4.7,0,0,1-3.58-1.48,4.94,4.94,0,0,1-1-1.7,6,6,0,0,1-.36-2.12,5.67,5.67,0,0,1,1.69-4.26,6.17,6.17,0,0,1,4.48-1.63,5.69,5.69,0,0,1,4.23,1.61,5.83,5.83,0,0,1,1.58,4.25,9.47,9.47,0,0,1-.72,3.43,21,21,0,0,1-2.16,4l-2.71,4.05H129l4.9-6.64Zm16.34-2.43a4.21,4.21,0,0,1,2.3,1.63,4.86,4.86,0,0,1,.85,2.84,4.61,4.61,0,0,1-1.61,3.71,6.75,6.75,0,0,1-4.46,1.35,6.91,6.91,0,0,1-4.47-1.34,4.48,4.48,0,0,1-1.64-3.65,4.82,4.82,0,0,1,.85-2.87,4.29,4.29,0,0,1,2.33-1.67,4.27,4.27,0,0,1-1.93-1.45,3.9,3.9,0,0,1-.62-2.25,4.12,4.12,0,0,1,1.5-3.29,6,6,0,0,1,4-1.27,5.91,5.91,0,0,1,4,1.28,4.25,4.25,0,0,1,1.49,3.41,3.59,3.59,0,0,1-.65,2.18,4,4,0,0,1-1.9,1.39Zm-2.9-5.47a2.29,2.29,0,0,0-1.58.53,1.87,1.87,0,0,0-.59,1.44,1.93,1.93,0,0,0,.57,1.45,2.14,2.14,0,0,0,1.56.54,2.23,2.23,0,0,0,1.58-.53,1.86,1.86,0,0,0,.57-1.44,1.9,1.9,0,0,0-.57-1.45,2.16,2.16,0,0,0-1.54-.54Zm0,12.12a2.69,2.69,0,0,0,1.91-.67,2.44,2.44,0,0,0,.7-1.85,2.48,2.48,0,0,0-.69-1.88,2.7,2.7,0,0,0-1.92-.67,2.66,2.66,0,0,0-1.94.69,2.45,2.45,0,0,0-.71,1.86,2.41,2.41,0,0,0,.71,1.83,2.66,2.66,0,0,0,1.94.69Zm9.23-1.29a9.28,9.28,0,0,0,2.06,1.09,5.86,5.86,0,0,0,1.9.29,4,4,0,0,0,2.67-.83,3.2,3.2,0,0,0,0-4.58,4,4,0,0,0-2.72-.82,5.67,5.67,0,0,0-1.74.25,5.18,5.18,0,0,0-1.46.75l-.81-.5,2.13-8.93h8.85v2.89h-6.62l-.83,3.48a4.56,4.56,0,0,1,.52-.14l.57-.12a5,5,0,0,1,.58-.08,4.85,4.85,0,0,1,.58,0,5.42,5.42,0,0,1,4,1.52,5.29,5.29,0,0,1,1.53,3.93,5.49,5.49,0,0,1-1.87,4.38,7.58,7.58,0,0,1-5.14,1.62,9.63,9.63,0,0,1-2.66-.34A8.41,8.41,0,0,1,155.8,317l.75-2.77Z"/><path class="cls-3" d="M36,54.19s0,15.46.19,19.74,2.23,10.62,0,16.58-5.77,8.19-5.59,10,3.91,12.85,3.91,12.85a46,46,0,0,1,4.1-8.56c2.42-3.73,2.42-5.22,6-5.59s8-.75,9.68,0,1.87.93-.18,4.28-4.66,11.18-6.71,14.34-3.91,6.71-6.51,7.27a24,24,0,0,1-4.47.55l.55,3.73s3-4.47,6.34-3,3.16,5.77,2.42,7.45-6.15,5.59-7.45,6a2.13,2.13,0,0,0-1.49,1.67l-.19,13.23s2.61-6,5.4-10.8,4.66-8.57,8-10.43,5-4.66,4.28-.19-2.23,14.53-2.23,17.13a27.32,27.32,0,0,1-1.68,9.32c-1.3,3.72-1.86,6.33-5.21,7.07s-5.77,2.42-6.71,2.42-.74,3.17-.74,4.85.37,8,.37,8a50.73,50.73,0,0,0,4.1-4.84c.93-1.49,1.12-3,3.91-3.16s5.77-1.68,4.84.93-2.23,6.52-2.23,8.38-1.86,4.47-2.8,5.21a15.2,15.2,0,0,1-5.77,2H38.08s1.68,16.58,2.05,17.51,2.24,0,3-3.35,1.49-7.08,2.79-9.69,3.92-4.84,6.52-8,4.1-5.58,4.1-.93a104.11,104.11,0,0,1-1.12,14.34c-.56,3.35-.56,8-2.79,12.67s-2.42,6.51-5.22,7.07a23.27,23.27,0,0,1-3.91.56l.93,8a6.34,6.34,0,0,0,2.24-2c1.3-1.68,3.54-5.4,6.33-5.77a37.65,37.65,0,0,1,8.38.37c1.68.19,2,1.68,1.49,4.47s-2.61,6-2.42,7.82-2.42,5.4-4.84,5.77a54.53,54.53,0,0,1-7.08.56c-1.49,0-.93,1.31-.74,3.91s2.42,7.27,2.42,8.2,1.67,1.68,3-.75a7.8,7.8,0,0,1,6.52-3.72c1.86.19,4.65.37,3.91,2.23s-2.42,7.08-2.42,8.76-.38,3.35-2.8,3.54a43.21,43.21,0,0,0-5,.74s9.32,20.86,11.55,24.21,3,7.64,3.91,1.31.37-9.32,2.24-12.3,6.33-2.79,8.19-2.79,2.24.56,2.42,3.54a61.88,61.88,0,0,1-.18,11.55c-.56,5.21-.56,9.12-2.24,10.24s-5,3.54-5,3.54,8,7.82,11.55,11S93,319.39,93,319.39s.75.37.75-2.42-1.87-11.36-1.31-17.88.56-8.75,1.31-14.34.37-8.38,2.42-4.66,4.65,6.52,7.07,11.55,4.29,11.18,3.54,16.76-1.3,11.18-2.42,13a8.18,8.18,0,0,0-.93,4.28s29.8,14.9,43.77,17.51,11.92,6,6.89,5-29.06-3.36-36.69-6.89-15.46-7.27-17.69-9.5-3-2.8-5-2.05-8.75,3-11.55,2.61-7.45-.75-10.24-4.1-6-8.75-2.61-9.5,5.77-1.67,9.87.37,8.57,3.92,5.59,1.12-7.08-6.52-10.43-9.12-6.15-4.47-6.15-4.47-1.49,6.51-4.84,7.45-7.45,1.11-10.06-1.31-3.53-4.28-2-8.19,1.86-5.78,5.4-6.89a31.27,31.27,0,0,0,5.77-2.42s-3.17-3.92-4.28-5.22-4.1,3.91-7.82,3.17-3.54.18-6.71-2.05-5.4-2.61-8.19-6.89-5.4-7.08-6.52-9.31-3.17-3.91.56-4.1,7.07-1.68,12.1-1.12,8,.75,8,.75a9.49,9.49,0,0,0-1.12-4.1c-1.11-2.05-1.49-3-3.16-2.24s-7.64.75-11.36-1.86-9.5-5.59-13.79-12.1-6.33-9.13-6.33-9.13S12,239.49,18,239.49s9.31-1.67,14.53.38,6.33,4.09,8.19,5.58,2.23,2.61,1.86-1.49-1.49-6.7-2.42-10.05-.56-4.66-2.61-4.66-7.63.37-10.24-4.1-4.84-9.12-4.84-11,.18-2,3.72-1.49,6.71,1.67,8.2,3,3.16,4.47,1.86-.93a72.71,72.71,0,0,1-2-15.83c0-4.47.37-6-1.86-6s-9.69.37-13.22-2.24-7.64-6-8.2-10.06S9.4,173,8.66,169.1s-2.8-6,1.11-5.4,4.29.18,9.32,3.35a27.42,27.42,0,0,1,9.68,10.24c1.86,3.35,4.28,8.94,4.28,3.35v-8.38s-3.16-.37-6.89-4.65-5.4-6.71-5.4-10.25.75-5.21,4.84-3.16A11.41,11.41,0,0,1,31,159.6s1.3.93,1.11-3.35.19-12.85.19-12.85-5.59,1.11-9.31-.75-8.94-3.16-10.43-12.48-3.17-12.29-.56-13a13.35,13.35,0,0,1,5.21-.37c1.49,0,1.68-.38,0-3.73s-6.14-9.87-5.77-17,2.61-14.9,3-16.57a13.24,13.24,0,0,1,.93-2.8,44.4,44.4,0,0,0,2.24,9.5c1.86,5.4,2,8.57,4.47,9.87s4.28,4.1,4.65.93-.18-9.31-1.3-14.15-1.49-10.8.93-15.08S33.24,57,33.24,57L36,54.19Zm-10.61,65s5.4-.75,6.14.37.56,6.52.56,6.52-.74,3.35-1.3,1.11-1.3-4.47-2.79-5.77-2.61-2.23-2.61-2.23Z"/><path class="cls-3" d="M244.88,54.19s0,15.46-.18,19.74-2.24,10.62,0,16.58,5.77,8.19,5.58,10-3.91,12.85-3.91,12.85a45.28,45.28,0,0,0-4.1-8.56c-2.42-3.73-2.42-5.22-6-5.59s-8-.75-9.69,0-1.86.93.19,4.28,4.65,11.18,6.7,14.34,3.91,6.71,6.52,7.27a24,24,0,0,0,4.47.55l-.56,3.73s-3-4.47-6.33-3-3.17,5.77-2.42,7.45,6.14,5.59,7.45,6a2.15,2.15,0,0,1,1.49,1.67l.18,13.23s-2.6-6-5.4-10.8-4.65-8.57-8-10.43-5-4.66-4.28-.19,2.24,14.53,2.24,17.13a27.52,27.52,0,0,0,1.67,9.32c1.31,3.72,1.86,6.33,5.22,7.07s5.77,2.42,6.7,2.42.75,3.17.75,4.85-.38,8-.38,8a51,51,0,0,1-4.09-4.84c-.94-1.49-1.12-3-3.91-3.16s-5.78-1.68-4.85.93,2.24,6.52,2.24,8.38,1.86,4.47,2.79,5.21a15.2,15.2,0,0,0,5.77,2h2.05s-1.67,16.58-2.05,17.51-2.23,0-3-3.35-1.48-7.08-2.79-9.69-3.91-4.84-6.52-8-4.09-5.58-4.09-.93a104.24,104.24,0,0,0,1.11,14.34c.56,3.35.56,8,2.8,12.67s2.42,6.51,5.21,7.07a23.42,23.42,0,0,0,3.91.56l-.93,8a6.38,6.38,0,0,1-2.23-2c-1.31-1.68-3.54-5.4-6.34-5.77a37.69,37.69,0,0,0-8.38.37c-1.67.19-2,1.68-1.49,4.47s2.61,6,2.42,7.82,2.43,5.4,4.85,5.77a54.4,54.4,0,0,0,7.07.56c1.49,0,.94,1.31.75,3.91s-2.42,7.27-2.42,8.2-1.68,1.68-3-.75a7.83,7.83,0,0,0-6.52-3.72c-1.86.19-4.66.37-3.91,2.23s2.42,7.08,2.42,8.76.37,3.35,2.79,3.54a43.21,43.21,0,0,1,5,.74s-9.31,20.86-11.54,24.21-3,7.64-3.92,1.31-.37-9.32-2.23-12.3-6.33-2.79-8.19-2.79-2.24.56-2.43,3.54a62.05,62.05,0,0,0,.19,11.55c.56,5.21.56,9.12,2.24,10.24s5,3.54,5,3.54-8,7.82-11.54,11-7.27,6.15-7.27,6.15-.74.37-.74-2.42,1.86-11.36,1.3-17.88-.56-8.75-1.3-14.34-.37-8.38-2.42-4.66-4.66,6.52-7.08,11.55-4.28,11.18-3.54,16.76,1.31,11.18,2.42,13a8.18,8.18,0,0,1,.93,4.28s-29.79,14.9-43.76,17.51-11.92,6-6.89,5,29.05-3.36,36.69-6.89,15.45-7.27,17.69-9.5,3-2.8,5-2.05,8.75,3,11.54,2.61,7.45-.75,10.25-4.1,6-8.75,2.6-9.5-5.77-1.67-9.87.37-8.56,3.92-5.58,1.12,7.07-6.52,10.43-9.12,6.14-4.47,6.14-4.47,1.49,6.51,4.84,7.45,7.45,1.11,10.06-1.31,3.54-4.28,2.05-8.19-1.86-5.78-5.4-6.89a31.27,31.27,0,0,1-5.77-2.42s3.16-3.92,4.28-5.22,4.1,3.91,7.82,3.17,3.54.18,6.71-2.05,5.4-2.61,8.19-6.89,5.4-7.08,6.52-9.31,3.16-3.91-.56-4.1-7.08-1.68-12.11-1.12-8,.75-8,.75a9.56,9.56,0,0,1,1.11-4.1c1.12-2.05,1.49-3,3.17-2.24s7.63.75,11.36-1.86,9.5-5.59,13.78-12.1,6.33-9.13,6.33-9.13,2.8-1.68-3.16-1.68-9.31-1.67-14.53.38-6.33,4.09-8.19,5.58-2.24,2.61-1.87-1.49,1.49-6.7,2.42-10.05.56-4.66,2.61-4.66,7.64.37,10.25-4.1,4.84-9.12,4.84-11-.19-2-3.73-1.49-6.7,1.67-8.19,3-3.17,4.47-1.86-.93a72.66,72.66,0,0,0,2-15.83c0-4.47-.37-6,1.87-6s9.68.37,13.22-2.24,7.64-6,8.19-10.06,1.49-7.63,2.24-11.54,2.79-6-1.12-5.4-4.28.18-9.31,3.35a27.34,27.34,0,0,0-9.68,10.24c-1.87,3.35-4.29,8.94-4.29,3.35v-8.38s3.17-.37,6.89-4.65,5.4-6.71,5.4-10.25-.74-5.21-4.84-3.16a11.35,11.35,0,0,0-5.4,5.4s-1.3.93-1.12-3.35-.18-12.85-.18-12.85,5.58,1.11,9.31-.75,8.94-3.16,10.43-12.48,3.16-12.29.56-13a13.39,13.39,0,0,0-5.22-.37c-1.49,0-1.67-.38,0-3.73s6.15-9.87,5.78-17-2.61-14.9-3-16.57a13.56,13.56,0,0,0-.94-2.8,44.7,44.7,0,0,1-2.23,9.5c-1.86,5.4-2.05,8.57-4.47,9.87s-4.28,4.1-4.66.93.19-9.31,1.31-14.15,1.49-10.8-.93-15.08S247.68,57,247.68,57l-2.8-2.79Zm10.62,65s-5.4-.75-6.15.37-.56,6.52-.56,6.52.75,3.35,1.31,1.11,1.3-4.47,2.79-5.77,2.61-2.23,2.61-2.23Z"/><path class="cls-2" d="M214.52,77v129.7c0,30-19.07,78.06-74.06,77.78S66.4,236.68,66.4,206.68V77Z"/><path class="cls-1" d="M189.78,265.49,140.46,77,91.13,265.49c11.36-13.47,29.23-22.17,49.33-22.17s38,8.7,49.32,22.17Z"/><path class="cls-2" d="M140.74,182.7l2.57-8.14,8.26.06-6.45-5.56,2.61-8.73-7.06,5-6.56-4.85,2.35,8.44-6.54,5.53,8.16.09,2.66,8.17Zm-27,24.57A27.37,27.37,0,0,1,127.23,184a20.82,20.82,0,1,0,26.82.18,27.4,27.4,0,0,1,13.1,23.54c-.12,14.94-12.21,27.06-26.9,26.94s-26.6-12.42-26.48-27.37Z"/><path class="cls-4" d="M182.35,16h27.72q6.93,0,10.64,3.28a10.44,10.44,0,0,1,3.71,8.13,10,10,0,0,1-2.65,7,11.84,11.84,0,0,1-5.16,3.07q5.16,1.18,7.6,4.08a10.92,10.92,0,0,1,2.43,7.27,12.15,12.15,0,0,1-1.73,6.41,12.66,12.66,0,0,1-4.74,4.5,16.09,16.09,0,0,1-5.62,1.5,66.32,66.32,0,0,1-6.64.62H182.35Zm14.94,18h6a9.31,9.31,0,0,0,4.53-.79A2.5,2.5,0,0,0,209.13,31a2.39,2.39,0,0,0-1.27-2.15,9.07,9.07,0,0,0-4.43-.78h-6.14Zm0,16.22H204c2.27,0,3.87-.34,4.8-1a3.14,3.14,0,0,0,1.39-2.68,2.91,2.91,0,0,0-1.38-2.51c-.92-.63-2.53-.95-4.84-.95h-6.68Z"/></g></g></svg>