<svg width="29" height="29" viewBox="0 0 29 29" xmlns="http://www.w3.org/2000/svg">
    <g fill="#FE6262" fill-rule="nonzero">
        <path d="M14.5 29C22.496 29 29 22.496 29 14.5S22.496 0 14.5 0 0 6.505 0 14.5 6.504 29 14.5 29zm0-26.754c6.756 0 12.254 5.497 12.254 12.254S21.256 26.754 14.5 26.754c-6.757 0-12.254-5.497-12.254-12.254S7.744 2.246 14.5 2.246z"/>
        <path d="m8.087 12.95 5.616 5.616a1.123 1.123 0 0 0 1.583 0l5.616-5.616a1.122 1.122 0 0 0-1.584-1.584L14.5 16.185l-4.83-4.819a1.123 1.123 0 0 0-1.583 0 1.123 1.123 0 0 0 0 1.584z"/>
    </g>
</svg>
