<svg width="100" height="100" viewBox="0 0 100 100" xmlns="http://www.w3.org/2000/svg">
    <defs>
        <linearGradient x1="31.211%" y1="31.213%" x2="68.332%" y2="79.789%" id="a">
            <stop stop-color="#FF5E5E" offset="0%"/>
            <stop stop-color="#FF302F" offset="100%"/>
        </linearGradient>
    </defs>
    <g fill-rule="nonzero" fill="none">
        <path d="M49.221.006C76.88-.416 99.455 21.353 99.991 49.01a50.236 50.236 0 0 1-1.164 11.804c-1.416 6.419-2.258 12.951-2.258 19.524v12.707a3.525 3.525 0 0 1-3.524 3.524H80.338c-6.573 0-13.105.842-19.524 2.258A50.223 50.223 0 0 1 49.01 99.99C21.353 99.455-.416 76.881.006 49.223.418 22.226 22.225.419 49.221.006z" fill="url(#a)"/>
        <path d="M98.923 60.363c-.032.15-.063.3-.097.45-1.416 6.419-2.257 12.952-2.257 19.525v12.708a3.524 3.524 0 0 1-3.524 3.523H80.338c-.95 0-1.898.017-2.845.054l-32.457-32.46c-.556-.563-.834-1.576-.834-3.04 0-6.422 1.639-11.043 4.92-13.859.329-.304.996-.84 1.994-1.607-.275-.237-15.711-15.733-15.89-15.89-.733-.629-1.095-1.49-1.095-2.58 0-1.954 1.375-3.868 4.13-5.741 2.753-1.873 6.248-2.811 10.48-2.811 5.31 0 9.493 1.365 12.548 4.089l37.634 37.64zM74.88 96.758c-4.055.275-8.086.846-12.076 1.65L44.368 79.973c-.954-.928-1.433-2.008-1.433-3.246 0-1.288.479-2.383 1.433-3.284.955-.902 2.135-1.353 3.539-1.353 1.44 0 2.687.452 3.739 1.353L74.88 96.758z"/>
        <path d="M34.13 27.187c0-1.955 1.377-3.869 4.131-5.742 2.754-1.872 6.247-2.809 10.48-2.809 5.31 0 9.492 1.364 12.547 4.09 3.054 2.726 4.582 6.196 4.582 10.412 0 1.743-.255 3.414-.763 5.016a15.259 15.259 0 0 1-2.2 4.385c-.959 1.32-1.82 2.417-2.582 3.288-.761.872-1.722 1.827-2.878 2.866-1.157 1.041-1.848 1.673-2.069 1.897-1.67 1.518-2.699 3.064-3.089 4.638-.39 1.574-.583 3.962-.583 7.166 0 1.743-1.298 2.614-3.89 2.614-1.299 0-2.225-.281-2.78-.844-.556-.564-.835-1.578-.835-3.042 0-6.42 1.64-11.041 4.92-13.858.364-.337 1.139-.956 2.325-1.857 1.184-.901 2.067-1.649 2.647-2.24.58-.592 1.257-1.38 2.032-2.366a9.941 9.941 0 0 0 1.7-3.21c.36-1.154.54-2.38.54-3.676 0-2.703-.875-4.802-2.626-6.294-1.751-1.493-4.176-2.24-7.276-2.24-1.8 0-3.33.273-4.595.818-1.265.545-2.15 1.16-2.656 1.848a11.72 11.72 0 0 1-1.686 1.85c-.62.545-1.265.817-1.94.817-.843 0-1.63-.315-2.36-.946-.731-.63-1.096-1.49-1.096-2.58zm8.807 49.54c0-1.288.477-2.383 1.432-3.284.953-.9 2.134-1.353 3.538-1.353 1.442 0 2.688.452 3.739 1.353 1.051.901 1.577 1.996 1.577 3.284 0 1.238-.526 2.319-1.577 3.246-1.051.928-2.297 1.391-3.739 1.391-1.404 0-2.585-.463-3.538-1.39-.955-.928-1.432-2.01-1.432-3.247z" fill="#FFF"/>
    </g>
</svg>
